<?xml version="1.0" encoding="UTF-8"?>
<svg width="162px" height="48px" viewBox="0 0 162 48" version="1.1" xmlns="http://www.w3.org/2000/svg" xmlns:xlink="http://www.w3.org/1999/xlink">
    <!-- Generator: Sketch 42 (36781) - http://www.bohemiancoding.com/sketch -->
    <title>btn google play</title>
    <desc>Created with Sketch.</desc>
    <defs>
        <path d="M156.013304,48 L5.98669623,48 C2.6803352,48 1.46096488e-14,45.2913622 1.42108547e-14,41.9500882 L1.42108547e-14,6.04991177 C1.38120606e-14,2.70863776 2.6803352,6.04507621e-16 5.98669623,0 L156.013304,0 C157.601074,6.71675135e-17 159.123814,0.637399589 160.246537,1.77197813 C161.369261,2.90655668 162,4.44537541 162,6.04991177 L162,42.0226872 C161.960658,45.3355751 159.291811,48.0002386 156.013304,48 L156.013304,48 Z" id="path-1"></path>
        <mask id="mask-2" maskContentUnits="userSpaceOnUse" maskUnits="objectBoundingBox" x="0" y="0" width="162" height="48" fill="white">
            <use xlink:href="#path-1"></use>
        </mask>
    </defs>
    <g id="Symbols" stroke="none" stroke-width="1" fill="none" fill-rule="evenodd">
        <g id="button/appstore/googleplay/white">
            <g id="btn-google-play">
                <g id="btn">
                    <g id="svg2">
                        <g id="g10">
                            <g id="g12">
                                <use id="path14" stroke-opacity="0.4" stroke="#FFFFFF" mask="url(#mask-2)" stroke-width="2" xlink:href="#path-1"></use>
                                <g id="Group-14" transform="translate(50.000000, 8.000000)" fill="#FFFFFF">
                                    <path d="M7.28030522,4.38773136 C7.32741799,5.27267903 7.00730359,6.13785308 6.39553096,6.77901315 C5.69736124,7.47886693 4.74130974,7.85955712 3.75316458,7.83117713 C2.76478816,7.84800101 1.81166403,7.46416369 1.11079821,6.76705674 C0.39470468,6.07213868 0.000450852457,5.11033264 0.0227649982,4.11273396 C-0.00602943288,3.1128059 0.384048259,2.14628006 1.0988418,1.44645477 C1.79295079,0.737829458 2.74951837,0.348277053 3.74120817,0.370377965 C4.23591618,0.383585794 4.72328771,0.493244388 5.17597725,0.693201006 C5.63023179,0.8425073 6.04082363,1.10118016 6.37161814,1.44645477 L5.74988487,2.06818803 C5.25553701,1.50127956 4.528265,1.19273992 3.7770774,1.23123941 C3.0446829,1.22387778 2.3393547,1.50772937 1.81622634,2.0203624 C1.26434381,2.55445885 0.964574622,3.29736509 0.991234121,4.06490832 C0.962667651,4.836295 1.26247063,5.58362997 1.81622634,6.12141066 C2.34080345,6.63182297 3.04517627,6.91529008 3.7770774,6.91053365 C4.52619147,6.93218511 5.25169297,6.64716666 5.7857541,6.12141066 C6.15203502,5.7312227 6.36443179,5.22147045 6.38357455,4.68664159 L3.74120817,4.68664159 L3.74120817,3.83773655 L7.22052317,3.83773655 C7.26166215,4.01813781 7.28172372,4.20270429 7.28030522,4.38773136 L7.28030522,4.38773136 Z" id="path20"></path>
                                    <polygon id="path24" points="12.5874624 1.26621692 9.31140633 1.26621692 9.31140633 3.49010898 12.2646393 3.49010898 12.2646393 4.35097042 9.31140633 4.35097042 9.31140633 6.5987753 12.5874624 6.5987753 12.5874624 7.47159315 8.39076284 7.47159315 8.39076284 0.369486248 12.5874624 0.369486248"></polygon>
                                    <polygon id="path28" points="16.2982875 7.47159315 15.377644 7.47159315 15.377644 1.26621692 13.3689673 1.26621692 13.3689673 0.369486248 18.3069642 0.369486248 18.3069642 1.26621692 16.2982875 1.26621692"></polygon>
                                    <polygon id="path32" points="21.7384536 7.47159315 21.7384536 0.369486248 22.659097 0.369486248 22.659097 7.47159315"></polygon>
                                    <polygon id="path36" points="27.0590555 7.47159315 26.138412 7.47159315 26.138412 1.26621692 24.1297353 1.26621692 24.1297353 0.369486248 29.0796886 0.369486248 29.0796886 1.26621692 27.0590555 1.26621692"></polygon>
                                    <path d="M38.6416489,6.74171849 C37.1771598,8.17720502 34.8333618,8.17720502 33.3688726,6.74171849 C32.6646353,6.04557429 32.2795158,5.08926627 32.3047522,4.09935212 C32.2793133,3.1035413 32.6691275,2.14199944 33.380829,1.44502934 C34.8412512,0.0109718853 37.1812267,0.0109718853 38.6416489,1.44502934 C39.3428255,2.13829949 39.7276877,3.08964437 39.7057693,4.0754393 C39.737694,5.07358065 39.3520554,6.03984383 38.6416489,6.74171849 L38.6416489,6.74171849 Z M34.0503879,6.14389804 C35.1348039,7.2119679 36.8757177,7.2119679 37.9601336,6.14389804 C38.4970289,5.60158904 38.7867915,4.86204556 38.761213,4.09935212 C38.7867915,3.33665867 38.4970289,2.5971152 37.9601336,2.05480619 C36.8757177,0.986736341 35.1348039,0.986736341 34.0503879,2.05480619 C33.5134927,2.5971152 33.22373,3.33665867 33.2493085,4.09935212 C33.2300257,4.86557744 33.5286438,5.60563085 34.0743007,6.14389804 L34.0503879,6.14389804 Z" id="path40"></path>
                                    <polygon id="path44" points="40.8687078 7.47159315 40.8687078 0.369486248 41.9926103 0.369486248 45.4838817 5.89334717 45.4838817 5.89334717 45.4838817 4.53031655 45.4838817 0.369486248 46.4045252 0.369486248 46.4045252 7.47159315 45.436056 7.47159315 41.7654385 1.67273482 41.7654385 1.67273482 41.7654385 3.04772185 41.7654385 7.47159315"></polygon>
                                </g>
                                <path d="M12.5100426,9.45318111 C12.1232361,9.91772972 11.9267242,10.5115375 11.9600478,11.115122 L11.9600478,37.3235703 C11.9267242,37.9271548 12.1232361,38.5209625 12.5100426,38.9855112 L12.5937375,39.069206 L27.4435974,24.3867359 L27.4435974,24.0639128 L12.5937375,9.36948625 L12.5100426,9.45318111 Z" id="path64" fill="#FFFFFF"></path>
                                <path d="M33.9499533,29.115122 L29,24.2249507 L29,23.8901713 L33.9499533,19 L34.057561,19.059782 L39.9162013,22.3597509 C41.5900986,23.2923508 41.5900986,24.8347276 39.9162013,25.7792839 L34.057561,29.0672963 L33.9499533,29.115122 Z" id="path78" fill="#FFFFFF"></path>
                                <path d="M33.0030721,29.9977789 L27.9455112,25 L13,39.766165 C13.7075145,40.3756724 14.7454604,40.4056132 15.4869331,39.8379035 L32.9911157,30.0097353" id="path88" fill="#FFFFFF"></path>
                                <path d="M32.9594811,18.6040647 L15.443342,8.77589659 C14.7018693,8.2081869 13.6639234,8.23812764 12.9564089,8.84763504 L27.8899637,23.6138001 L32.9594811,18.6040647 Z" id="path104" fill="#FFFFFF"></path>
                            </g>
                            <path d="M81.4855631,26.5728186 C78.7169184,26.6188595 76.5053494,28.8924783 76.5359165,31.661337 C76.5664836,34.4301957 78.8277072,36.6544367 81.5966935,36.6393443 C84.3656798,36.6242519 86.6025233,34.3754942 86.6029061,31.6064668 C86.6130026,30.2537846 86.0743442,28.9547827 85.1099731,28.006184 C84.145602,27.0575854 82.8378949,26.5404192 81.4855631,26.5728186 L81.4855631,26.5728186 Z M81.4855631,34.6673075 C80.2327659,34.7408369 79.0620123,34.0421913 78.5318868,32.9047053 C78.0017614,31.7672193 78.2196834,30.4213814 79.0816787,29.5093115 C79.9436741,28.5972417 81.275077,28.3037525 82.4406546,28.7688721 C83.6062322,29.2339917 84.3698038,30.3634731 84.3670576,31.6184232 C84.3993904,32.4075947 84.111669,33.1763821 83.5691525,33.7504142 C83.0266359,34.3244462 82.2753018,34.6550743 81.4855631,34.6673075 L81.4855631,34.6673075 Z M70.3302335,26.5728186 C67.5615889,26.6188595 65.3500199,28.8924783 65.380587,31.661337 C65.4111541,34.4301957 67.6723777,36.6544367 70.441364,36.6393443 C73.2103503,36.6242519 75.4471938,34.3754942 75.4475765,31.6064668 C75.4577706,30.251657 74.9174827,28.9507604 73.9504866,28.0017968 C72.9834904,27.0528332 71.672655,26.5371264 70.3182771,26.5728186 L70.3302335,26.5728186 Z M70.3302335,34.6673075 C69.0767091,34.7458038 67.9024498,34.0505556 67.3684839,32.9137331 C66.834518,31.7769105 67.0492284,30.4292628 67.9100326,29.5146583 C68.7708368,28.6000539 70.103011,28.3041367 71.2700795,28.7682877 C72.4371481,29.2324387 73.2022225,30.3624458 73.1997717,31.6184232 C73.2321045,32.4075947 72.9443831,33.1763821 72.4018665,33.7504142 C71.85935,34.3244462 71.1080159,34.6550743 70.3182771,34.6673075 L70.3302335,34.6673075 Z M57.0466632,28.1271518 L57.0466632,30.267349 L62.2237883,30.267349 C62.1440489,31.2742812 61.7221274,32.2236046 61.0281474,32.957541 C59.9741169,34.0143718 58.5261676,34.58228 57.0347068,34.5238306 C53.9961144,34.3844471 51.6042457,31.8803456 51.6042457,28.8385581 C51.6042457,25.7967706 53.9961144,23.2926692 57.0347068,23.1532857 C58.484472,23.1321036 59.8844403,23.6817844 60.9324961,24.683706 L62.4629165,23.1532857 C61.0127661,21.7409543 59.0586623,20.9661995 57.0347068,21.0011321 C52.6650789,20.9741402 49.0849559,24.4636946 49,28.8325799 C49.0849559,33.2014652 52.6650789,36.6910196 57.0347068,36.6640278 C59.1051557,36.7501318 61.1142139,35.9499875 62.5585677,34.4640485 C64.0715854,32.7256937 64.7176071,30.3964998 64.3161598,28.1271518 L57.0466632,28.1271518 Z M111.340716,29.7771362 C110.688824,27.9091849 108.95407,26.6354479 106.976627,26.5728186 C105.663486,26.5710076 104.407366,27.1092023 103.502881,28.0611731 C102.598396,29.013144 102.125122,30.2951357 102.194063,31.6064668 C102.174361,32.9515851 102.701669,34.2470544 103.655165,35.1960419 C104.608661,36.1450294 105.906614,36.666192 107.251624,36.6401149 C108.951891,36.6538012 110.545789,35.8141986 111.496149,34.4042665 L109.76247,33.2086256 C109.229225,34.0834673 108.276149,34.6144668 107.251624,34.6075254 C106.203922,34.6690391 105.222348,34.0933081 104.764691,33.1488435 L111.579844,30.327131 L111.340716,29.7771362 Z M104.394043,31.4510335 C104.348438,30.7051431 104.605713,29.9724032 105.107605,29.418746 C105.609498,28.8650889 106.313548,28.5373535 107.060322,28.5097569 C107.849455,28.4538906 108.596406,28.8719955 108.961391,29.5738773 L104.394043,31.4510335 Z M98.8462688,36.3053355 L101.082117,36.3053355 L101.082117,21.5391705 L98.8462688,21.5391705 L98.8462688,36.3053355 Z M95.1995641,27.6967211 L95.1278256,27.6967211 C94.4334753,26.9612282 93.4608677,26.5530804 92.44959,26.5728186 C89.7616202,26.7037834 87.6495289,28.9212866 87.6495289,31.612445 C87.6495289,34.3036034 89.7616202,36.5211066 92.44959,36.6520713 C93.4742363,36.6644076 94.4529133,36.2274982 95.1278256,35.4564305 L95.1995641,35.4564305 L95.1995641,36.173815 C95.3126648,36.9470312 95.0712396,37.7300396 94.5423588,38.3053136 C94.0134779,38.8805875 93.2534813,39.1868448 92.4735029,39.1390044 C91.3328524,39.1158404 90.3183862,38.4080733 89.9028749,37.3455431 L87.9539803,38.1466225 C88.7188339,39.9624681 90.503199,41.1378832 92.4735029,41.1237683 C95.1039128,41.1237683 97.3158485,39.5933479 97.3158485,35.8749048 L97.3158485,26.8836853 L95.1995641,26.8836853 L95.1995641,27.6967211 Z M92.6408926,34.6673075 C91.0278395,34.5663437 89.771261,33.2286547 89.771261,31.612445 C89.771261,29.9962352 91.0278395,28.6585463 92.6408926,28.5575825 C93.4144967,28.590967 94.1414346,28.9368649 94.6553077,29.5160991 C95.1691808,30.0953332 95.4259911,30.8583094 95.3669538,31.6303796 C95.4227364,32.4021277 95.1605047,33.163121 94.6411413,33.7366788 C94.121778,34.3102366 93.3904606,34.6464671 92.6169798,34.6673075 L92.6408926,34.6673075 Z M121.862356,21.5152576 L116.470016,21.5152576 L116.470016,36.3053355 L118.705864,36.3053355 L118.705864,30.7336489 L121.826487,30.7336489 C123.524861,30.8202905 125.132648,29.9635035 126.007838,28.505414 C126.883027,27.0473244 126.883027,25.225495 126.007838,23.7674054 C125.132648,22.3093159 123.524861,21.4525289 121.826487,21.5391705 L121.862356,21.5152576 Z M121.862356,28.689103 L118.705864,28.689103 L118.705864,23.5956728 L121.886269,23.5956728 C123.289479,23.5956728 124.427006,24.7331995 124.427006,26.1364097 C124.427006,27.5396199 123.289479,28.6771466 121.886269,28.6771466 L121.862356,28.689103 Z M135.683965,26.5608622 C134.023934,26.4623863 132.46234,27.353386 131.702481,28.8325799 L133.687244,29.6575721 C134.094483,28.9233565 134.895322,28.4971794 135.73179,28.5695389 C136.301396,28.5023439 136.87426,28.6652948 137.323224,29.0222213 C137.772188,29.3791478 138.060107,29.9005195 138.123072,30.4706079 L138.123072,30.6260413 C137.386763,30.2371151 136.564414,30.0397512 135.73179,30.0521336 C133.591593,30.0521336 131.415527,31.2477745 131.415527,33.3879717 C131.461029,34.3194229 131.882379,35.1925881 132.583225,35.8078005 C133.284072,36.4230129 134.204476,36.7276576 135.13397,36.6520713 C136.278064,36.7222214 137.370837,36.1689766 137.991552,35.2053459 L138.06329,35.2053459 L138.06329,36.4009868 L140.2274,36.4009868 L140.2274,30.6499541 C140.263269,28.0195441 138.242636,26.5489058 135.707878,26.5489058 L135.683965,26.5608622 Z M135.408967,34.6792639 C134.679626,34.6792639 133.663332,34.3205716 133.663332,33.483623 C133.663332,32.2879821 134.930711,31.8934206 136.054613,31.8934206 C136.768464,31.8778034 137.473772,32.051037 138.099159,32.3955898 C137.888723,33.6998993 136.765997,34.6607907 135.444837,34.6673075 L135.408967,34.6792639 Z M148.094717,26.8836853 L145.524089,33.3042768 L145.452351,33.3042768 L142.798028,26.8836853 L140.406746,26.8836853 L144.400187,35.850992 L142.128469,40.8368145 L144.519751,40.8368145 L150.665345,26.8717288 L148.094717,26.8836853 Z M127.984037,36.3053355 L130.219886,36.3053355 L130.219886,21.5391705 L127.984037,21.5391705 L127.984037,36.3053355 Z" id="path46" fill="#FFFFFF"></path>
                        </g>
                    </g>
                </g>
            </g>
        </g>
    </g>
</svg>