<?xml version="1.0" encoding="UTF-8"?>
<svg width="160px" height="48px" viewBox="0 0 160 48" version="1.1" xmlns="http://www.w3.org/2000/svg" xmlns:xlink="http://www.w3.org/1999/xlink">
    <!-- Generator: Sketch 42 (36781) - http://www.bohemiancoding.com/sketch -->
    <title>btn app store</title>
    <desc>Created with Sketch.</desc>
    <defs>
        <path d="M159.7704,43.1884422 C159.7704,45.8467337 157.7136,48 155.1696,48 L4.6068,48 C2.064,48 0,45.8467337 0,43.1884422 L0,4.8178392 C0,2.16080402 2.064,0 4.6068,0 L155.1684,0 C157.7136,0 159.7692,2.16080402 159.7692,4.8178392 L159.7704,43.1884422 L159.7704,43.1884422 L159.7704,43.1884422 Z" id="path-1"></path>
        <mask id="mask-2" maskContentUnits="userSpaceOnUse" maskUnits="objectBoundingBox" x="0" y="0" width="159.7704" height="48" fill="white">
            <use xlink:href="#path-1"></use>
        </mask>
    </defs>
    <g id="Symbols" stroke="none" stroke-width="1" fill="none" fill-rule="evenodd">
        <g id="button/appstore/appstore/white">
            <g id="btn-app-store">
                <g id="cta">
                    <g id="US_UK_Download_on_the">
                        <g id="Group">
                            <use id="Shape" stroke-opacity="0.4" stroke="#FFFFFF" mask="url(#mask-2)" stroke-width="2" xlink:href="#path-1"></use>
                            <path d="M35.2033148,24.0957241 C35.2429148,28.7313241 39.2581148,30.2637241 39.3073148,30.2805241 C39.2833148,30.3885241 38.6785148,32.4921241 37.1725148,34.6281241 C35.9149148,36.5085241 34.5973148,38.3469241 32.5045148,38.3805241 C30.4717148,38.4273241 29.7877148,37.1841241 27.4561148,37.1841241 C25.1029148,37.1841241 24.3745148,38.3469241 22.4245148,38.4273241 C20.4313148,38.5005241 18.9085148,36.4197241 17.6053148,34.5561241 C15.0001148,30.7509241 12.9721148,23.8329241 15.6913148,19.1253241 C17.0089148,16.8165241 19.4113148,15.3297241 21.9793148,15.2901241 C23.9749148,15.2493241 25.8265148,16.6377241 27.0529148,16.6377241 C28.2553148,16.6377241 30.5449148,14.9769241 32.9053148,15.2253241 C33.8929148,15.2541241 36.7033148,15.6153241 38.5165148,18.2589241 C38.3701148,18.3465241 35.1685148,20.2281241 35.2033148,24.0957241 Z M30.9859131,12.1068 C29.8915131,13.398 28.1407131,14.3856 26.4355131,14.2584 C26.2123131,12.516 27.0763131,10.6632 28.0435131,9.5328 C29.1367131,8.25 31.0351131,7.2672 32.5531131,7.2 C32.7523131,9.0108 32.0347131,10.7952 30.9859131,12.1068 Z" id="Combined-Shape" fill="#FFFFFF"></path>
                            <g transform="translate(49.400000, 21.600000)" id="Shape" fill="#FFFFFF">
                                <path d="M13.482,15.9696 L10.7568,15.9696 L9.264,11.2788 L4.0752,11.2788 L2.6532,15.9696 L0,15.9696 L5.1408,0 L8.316,0 L13.482,15.9696 L13.482,15.9696 Z M8.814,9.3108 L7.464,5.1408 C7.3212,4.7148 7.0536,3.7116 6.6588,2.1324 L6.6108,2.1324 C6.4536,2.8116 6.2004,3.8148 5.8524,5.1408 L4.5264,9.3108 L8.814,9.3108 L8.814,9.3108 Z"></path>
                                <path d="M27.0892,9.8524 C27.0892,11.8108 26.56,13.3588 25.5016,14.4952 C24.5536,15.5068 23.3764,16.012 21.9712,16.012 C20.4544,16.012 19.3648,15.4672 18.7012,14.3776 L18.6532,14.3776 L18.6532,20.4436 L16.0948,20.4436 L16.0948,8.0272 C16.0948,6.796 16.0624,5.5324 16,4.2364 L18.25,4.2364 L18.3928,6.0616 L18.4408,6.0616 C19.294,4.6864 20.5888,4 22.3264,4 C23.6848,4 24.8188,4.5364 25.726,5.6104 C26.6356,6.6856 27.0892,8.0992 27.0892,9.8524 L27.0892,9.8524 Z M24.4828,9.946 C24.4828,8.8252 24.2308,7.9012 23.7244,7.174 C23.1712,6.4156 22.4284,6.0364 21.4972,6.0364 C20.866,6.0364 20.2924,6.2476 19.78,6.664 C19.2664,7.084 18.9304,7.6324 18.7732,8.3116 C18.694,8.6284 18.6544,8.8876 18.6544,9.0916 L18.6544,11.0116 C18.6544,11.8492 18.9112,12.556 19.4248,13.1332 C19.9384,13.7104 20.6056,13.9984 21.4264,13.9984 C22.39,13.9984 23.14,13.6264 23.6764,12.8848 C24.214,12.142 24.4828,11.1628 24.4828,9.946 L24.4828,9.946 Z"></path>
                                <path d="M40.088,9.8524 C40.088,11.8108 39.5588,13.3588 38.4992,14.4952 C37.5524,15.5068 36.3752,16.012 34.97,16.012 C33.4532,16.012 32.3636,15.4672 31.7012,14.3776 L31.6532,14.3776 L31.6532,20.4436 L29.0948,20.4436 L29.0948,8.0272 C29.0948,6.796 29.0624,5.5324 29,4.2364 L31.25,4.2364 L31.3928,6.0616 L31.4408,6.0616 C32.2928,4.6864 33.5876,4 35.3264,4 C36.6836,4 37.8176,4.5364 38.7272,5.6104 C39.6332,6.6856 40.088,8.0992 40.088,9.8524 L40.088,9.8524 Z M37.4816,9.946 C37.4816,8.8252 37.2284,7.9012 36.722,7.174 C36.1688,6.4156 35.4284,6.0364 34.496,6.0364 C33.8636,6.0364 33.2912,6.2476 32.7776,6.664 C32.264,7.084 31.9292,7.6324 31.772,8.3116 C31.694,8.6284 31.6532,8.8876 31.6532,9.0916 L31.6532,11.0116 C31.6532,11.8492 31.91,12.556 32.4212,13.1332 C32.9348,13.7092 33.602,13.9984 34.4252,13.9984 C35.3888,13.9984 36.1388,13.6264 36.6752,12.8848 C37.2128,12.142 37.4816,11.1628 37.4816,9.946 L37.4816,9.946 Z"></path>
                                <path d="M54.9072,11.7252 C54.9072,13.0836 54.4356,14.1888 53.4888,15.042 C52.4484,15.9744 51,16.44 49.1388,16.44 C47.4204,16.44 46.0428,16.1088 45,15.4452 L45.5928,13.3128 C46.716,13.992 47.9484,14.3328 49.2912,14.3328 C50.2548,14.3328 51.0048,14.1144 51.5436,13.68 C52.08,13.2456 52.3476,12.6624 52.3476,11.9352 C52.3476,11.2872 52.1268,10.7412 51.684,10.2984 C51.2436,9.8556 50.508,9.444 49.4808,9.0636 C46.6848,8.0208 45.288,6.4932 45.288,4.4844 C45.288,3.1716 45.7776,2.0952 46.758,1.2576 C47.7348,0.4188 49.038,0 50.6676,0 C52.1208,0 53.328,0.2532 54.2916,0.7584 L53.652,2.844 C52.752,2.3544 51.7344,2.1096 50.5956,2.1096 C49.6956,2.1096 48.9924,2.3316 48.4884,2.7732 C48.0624,3.168 47.8488,3.6492 47.8488,4.2192 C47.8488,4.8504 48.0924,5.3724 48.582,5.7828 C49.008,6.162 49.782,6.5724 50.9052,7.0152 C52.2792,7.5684 53.2884,8.2152 53.9376,8.9568 C54.5844,9.696 54.9072,10.6212 54.9072,11.7252 L54.9072,11.7252 Z"></path>
                                <path d="M64.0128,6.7892 L61.1928,6.7892 L61.1928,12.38 C61.1928,13.802 61.6896,14.5124 62.6856,14.5124 C63.1428,14.5124 63.522,14.4728 63.822,14.3936 L63.8928,16.3364 C63.3888,16.5248 62.7252,16.6196 61.9032,16.6196 C60.8928,16.6196 60.1032,16.3112 59.5332,15.6956 C58.9656,15.0788 58.68,14.0444 58.68,12.5912 L58.68,6.7868 L57,6.7868 L57,4.8668 L58.68,4.8668 L58.68,2.7584 L61.1928,2 L61.1928,4.8668 L64.0128,4.8668 L64.0128,6.7892 L64.0128,6.7892 Z"></path>
                                <path d="M76.2788,9.898 C76.2788,11.668 75.7724,13.1212 74.762,14.2576 C73.7024,15.4276 72.296,16.0108 70.5428,16.0108 C68.8532,16.0108 67.508,15.4504 66.5048,14.3296 C65.5016,13.2088 65,11.794 65,10.0888 C65,8.3044 65.516,6.8428 66.5516,5.7064 C67.5848,4.5688 68.9792,4 70.7324,4 C72.422,4 73.7816,4.5604 74.8076,5.6824 C75.7892,6.7708 76.2788,8.176 76.2788,9.898 L76.2788,9.898 Z M73.6244,9.9808 C73.6244,8.9188 73.3976,8.008 72.938,7.2484 C72.4016,6.3292 71.6348,5.8708 70.6412,5.8708 C69.6128,5.8708 68.8316,6.3304 68.2952,7.2484 C67.8356,8.0092 67.6088,8.9344 67.6088,10.0288 C67.6088,11.0908 67.8356,12.0016 68.2952,12.76 C68.8484,13.6792 69.6212,14.1376 70.6184,14.1376 C71.5952,14.1376 72.362,13.6696 72.9152,12.736 C73.3868,11.962 73.6244,11.0416 73.6244,9.9808 L73.6244,9.9808 Z"></path>
                                <path d="M85.1608,6.4864 C84.9076,6.4396 84.6376,6.4156 84.3544,6.4156 C83.4544,6.4156 82.7584,6.7552 82.2688,7.4356 C81.8428,8.0356 81.6292,8.794 81.6292,9.7096 L81.6292,15.7516 L79.072,15.7516 L79.096,7.8628 C79.096,6.5356 79.0636,5.3272 79,4.2376 L81.2284,4.2376 L81.322,6.4408 L81.3928,6.4408 C81.6628,5.6836 82.0888,5.074 82.672,4.6168 C83.242,4.2052 83.8576,4 84.5212,4 C84.7576,4 84.9712,4.0168 85.1608,4.0468 L85.1608,6.4864 L85.1608,6.4864 Z"></path>
                                <path d="M96.2336,9.4708 C96.2336,9.9292 96.2036,10.3156 96.14,10.6312 L88.4648,10.6312 C88.4948,11.7688 88.8656,12.6388 89.5784,13.2388 C90.2252,13.7752 91.0616,14.044 92.0888,14.044 C93.2252,14.044 94.262,13.8628 95.1944,13.4992 L95.5952,15.2752 C94.5056,15.7504 93.2192,15.9868 91.7348,15.9868 C89.9492,15.9868 88.5476,15.4612 87.5276,14.4112 C86.51,13.3612 86,11.9512 86,10.1824 C86,8.446 86.474,7 87.4232,5.8468 C88.4168,4.6156 89.7596,4 91.4492,4 C93.1088,4 94.3652,4.6156 95.2184,5.8468 C95.894,6.8248 96.2336,8.0344 96.2336,9.4708 L96.2336,9.4708 Z M93.794,8.8072 C93.8108,8.0488 93.644,7.3936 93.2972,6.8404 C92.8544,6.1288 92.174,5.7736 91.2584,5.7736 C90.422,5.7736 89.7416,6.1204 89.222,6.8164 C88.796,7.3696 88.5428,8.0332 88.4648,8.806 L93.794,8.806 L93.794,8.8072 Z"></path>
                            </g>
                            <g transform="translate(51.600000, 8.200000)" id="Shape" fill="#FFFFFF">
                                <path d="M6.4488,3.7956 C6.4488,5.208 6.0252,6.2712 5.1792,6.9852 C4.3956,7.644 3.282,7.974 1.8396,7.974 C1.1244,7.974 0.5124,7.9428 0,7.8804 L0,0.1632 C0.6684,0.0552 1.3884,4.4408921e-16 2.166,4.4408921e-16 C3.54,4.4408921e-16 4.5756,0.2988 5.274,0.8964 C6.0564,1.572 6.4488,2.538 6.4488,3.7956 L6.4488,3.7956 Z M5.1228,3.8304 C5.1228,2.9148 4.8804,2.2128 4.3956,1.7232 C3.9108,1.2348 3.2028,0.99 2.2704,0.99 C1.8744,0.99 1.5372,1.0164 1.2576,1.0716 L1.2576,6.9384 C1.4124,6.9624 1.6956,6.9732 2.1072,6.9732 C3.0696,6.9732 3.8124,6.7056 4.3356,6.1704 C4.8588,5.6352 5.1228,4.8552 5.1228,3.8304 L5.1228,3.8304 Z"></path>
                                <path d="M13.5404,4.8968 C13.5404,5.7668 13.292,6.4796 12.7952,7.0388 C12.2744,7.6136 11.5844,7.9004 10.7228,7.9004 C9.8924,7.9004 9.2312,7.6256 8.738,7.0736 C8.246,6.5228 8,5.828 8,4.9904 C8,4.1144 8.2532,3.3956 8.762,2.8376 C9.2708,2.2796 9.9548,2 10.8164,2 C11.6468,2 12.314,2.2748 12.8192,2.8256 C13.2992,3.3608 13.5404,4.052 13.5404,4.8968 L13.5404,4.8968 Z M12.236,4.9376 C12.236,4.4156 12.1232,3.968 11.8988,3.5948 C11.6348,3.1436 11.2592,2.918 10.7708,2.918 C10.2656,2.918 9.8816,3.1436 9.6176,3.5948 C9.392,3.968 9.2804,4.4228 9.2804,4.9604 C9.2804,5.4824 9.3932,5.93 9.6176,6.3032 C9.89,6.7544 10.2692,6.98 10.7588,6.98 C11.2388,6.98 11.6156,6.7508 11.8868,6.2912 C12.1196,5.9108 12.236,5.4596 12.236,4.9376 L12.236,4.9376 Z"></path>
                                <path d="M23.196,2 L21.426,7.6568 L20.274,7.6568 L19.5408,5.2004 C19.3548,4.5872 19.2036,3.9776 19.086,3.3728 L19.0632,3.3728 C18.954,3.9944 18.8028,4.6028 18.6084,5.2004 L17.8296,7.6568 L16.6644,7.6568 L15,2 L16.2924,2 L16.932,4.6892 C17.0868,5.3252 17.214,5.9312 17.316,6.5048 L17.3388,6.5048 C17.4324,6.032 17.5872,5.4296 17.8056,4.7012 L18.6084,2.0012 L19.6332,2.0012 L20.4024,4.6436 C20.5884,5.288 20.7396,5.9084 20.856,6.506 L20.8908,6.506 C20.976,5.924 21.1044,5.3036 21.2748,4.6436 L21.9612,2.0012 L23.196,2.0012 L23.196,2 Z"></path>
                                <path d="M28.9584,7.7756 L27.7008,7.7756 L27.7008,4.5356 C27.7008,3.5372 27.3216,3.038 26.5608,3.038 C26.1876,3.038 25.8864,3.1748 25.6524,3.4496 C25.4208,3.7244 25.3032,4.0484 25.3032,4.4192 L25.3032,7.7744 L24.0456,7.7744 L24.0456,3.7352 C24.0456,3.2384 24.03,2.6996 24,2.1164 L25.1052,2.1164 L25.164,3.0008 L25.1988,3.0008 C25.3452,2.726 25.5636,2.4992 25.8504,2.318 C26.1912,2.1068 26.5728,2 26.9904,2 C27.5184,2 27.9576,2.1704 28.3068,2.5124 C28.7412,2.9312 28.9584,3.5564 28.9584,4.3868 L28.9584,7.7756 L28.9584,7.7756 Z"></path>
                                <polygon points="32.2564 8.2524 31 8.2524 31 0 32.2564 0"></polygon>
                                <path d="M40.5404,4.8968 C40.5404,5.7668 40.292,6.4796 39.7952,7.0388 C39.2744,7.6136 38.5832,7.9004 37.7228,7.9004 C36.8912,7.9004 36.23,7.6256 35.738,7.0736 C35.246,6.5228 35,5.828 35,4.9904 C35,4.1144 35.2532,3.3956 35.762,2.8376 C36.2708,2.2796 36.9548,2 37.8152,2 C38.6468,2 39.3128,2.2748 39.8192,2.8256 C40.2992,3.3608 40.5404,4.052 40.5404,4.8968 L40.5404,4.8968 Z M39.2348,4.9376 C39.2348,4.4156 39.122,3.968 38.8976,3.5948 C38.6348,3.1436 38.258,2.918 37.7708,2.918 C37.2644,2.918 36.8804,3.1436 36.6176,3.5948 C36.392,3.968 36.2804,4.4228 36.2804,4.9604 C36.2804,5.4824 36.3932,5.93 36.6176,6.3032 C36.89,6.7544 37.2692,6.98 37.7588,6.98 C38.2388,6.98 38.6144,6.7508 38.8856,6.2912 C39.1196,5.9108 39.2348,5.4596 39.2348,4.9376 L39.2348,4.9376 Z"></path>
                                <path d="M46.644,7.772 L45.5148,7.772 L45.4212,7.1204 L45.3864,7.1204 C45,7.64 44.4492,7.9004 43.734,7.9004 C43.2,7.9004 42.768,7.7288 42.4428,7.388 C42.1476,7.0784 42,6.6932 42,6.236 C42,5.5448 42.288,5.018 42.8676,4.6532 C43.446,4.2884 44.2596,4.1096 45.3072,4.118 L45.3072,4.0124 C45.3072,3.2672 44.916,2.8952 44.1324,2.8952 C43.5744,2.8952 43.0824,3.0356 42.6576,3.314 L42.402,2.4884 C42.9276,2.1632 43.5768,2 44.3424,2 C45.8208,2 46.5624,2.78 46.5624,4.34 L46.5624,6.4232 C46.5624,6.9884 46.59,7.4384 46.644,7.772 L46.644,7.772 Z M45.3384,5.828 L45.3384,4.9556 C43.9512,4.9316 43.2576,5.312 43.2576,6.0956 C43.2576,6.3908 43.3368,6.6116 43.4988,6.7592 C43.6608,6.9068 43.8672,6.98 44.1132,6.98 C44.3892,6.98 44.6472,6.8924 44.8824,6.7184 C45.1188,6.5432 45.264,6.3212 45.318,6.0488 C45.3312,5.9876 45.3384,5.9132 45.3384,5.828 L45.3384,5.828 Z"></path>
                                <path d="M53.4,8.2524 L52.284,8.2524 L52.2252,7.344 L52.1904,7.344 C51.834,8.0352 51.2268,8.3808 50.3736,8.3808 C49.692,8.3808 49.1244,8.1132 48.6744,7.578 C48.2244,7.0428 48,6.348 48,5.4948 C48,4.5792 48.2436,3.8376 48.7332,3.2712 C49.2072,2.7432 49.788,2.4792 50.4792,2.4792 C51.2388,2.4792 51.7704,2.7348 52.0728,3.2472 L52.0968,3.2472 L52.0968,0 L53.3556,0 L53.3556,6.7284 C53.3556,7.2792 53.37,7.7868 53.4,8.2524 L53.4,8.2524 Z M52.0968,5.8668 L52.0968,4.9236 C52.0968,4.7604 52.0848,4.6284 52.062,4.5276 C51.9912,4.2252 51.8388,3.9708 51.6072,3.7656 C51.3732,3.5604 51.0912,3.4572 50.766,3.4572 C50.2968,3.4572 49.9296,3.6432 49.6596,4.0164 C49.392,4.3896 49.2564,4.866 49.2564,5.448 C49.2564,6.0072 49.3848,6.4608 49.6428,6.81 C49.9152,7.182 50.2824,7.368 50.742,7.368 C51.1548,7.368 51.4848,7.2132 51.7356,6.9024 C51.978,6.6156 52.0968,6.27 52.0968,5.8668 L52.0968,5.8668 Z"></path>
                                <path d="M64.5404,4.8968 C64.5404,5.7668 64.292,6.4796 63.7952,7.0388 C63.2744,7.6136 62.5856,7.9004 61.7228,7.9004 C60.8936,7.9004 60.2324,7.6256 59.738,7.0736 C59.246,6.5228 59,5.828 59,4.9904 C59,4.1144 59.2532,3.3956 59.762,2.8376 C60.2708,2.2796 60.9548,2 61.8176,2 C62.6468,2 63.3152,2.2748 63.8192,2.8256 C64.2992,3.3608 64.5404,4.052 64.5404,4.8968 L64.5404,4.8968 Z M63.2372,4.9376 C63.2372,4.4156 63.1244,3.968 62.9,3.5948 C62.6348,3.1436 62.2604,2.918 61.7708,2.918 C61.2668,2.918 60.8828,3.1436 60.6176,3.5948 C60.392,3.968 60.2804,4.4228 60.2804,4.9604 C60.2804,5.4824 60.3932,5.93 60.6176,6.3032 C60.89,6.7544 61.2692,6.98 61.7588,6.98 C62.2388,6.98 62.6168,6.7508 62.888,6.2912 C63.1196,5.9108 63.2372,5.4596 63.2372,4.9376 L63.2372,4.9376 Z"></path>
                                <path d="M70.9572,7.7756 L69.7008,7.7756 L69.7008,4.5356 C69.7008,3.5372 69.3216,3.038 68.5596,3.038 C68.1864,3.038 67.8852,3.1748 67.6524,3.4496 C67.4196,3.7244 67.3032,4.0484 67.3032,4.4192 L67.3032,7.7744 L66.0444,7.7744 L66.0444,3.7352 C66.0444,3.2384 66.03,2.6996 66,2.1164 L67.104,2.1164 L67.1628,3.0008 L67.1976,3.0008 C67.3452,2.726 67.5636,2.4992 67.8492,2.318 C68.1912,2.1068 68.5716,2 68.9904,2 C69.5172,2 69.9564,2.1704 70.3056,2.5124 C70.7412,2.9312 70.9572,3.5564 70.9572,4.3868 L70.9572,7.7756 L70.9572,7.7756 Z"></path>
                                <path d="M79.4452,3.3508 L78.0604,3.3508 L78.0604,6.0988 C78.0604,6.7972 78.3064,7.1464 78.7936,7.1464 C79.0192,7.1464 79.2064,7.1272 79.354,7.0876 L79.3864,8.0416 C79.138,8.1352 78.8116,8.182 78.4096,8.182 C77.9128,8.182 77.5264,8.0308 77.2468,7.7284 C76.966,7.426 76.8268,6.9172 76.8268,6.2032 L76.8268,3.3508 L76,3.3508 L76,2.4088 L76.8268,2.4088 L76.8268,1.372 L78.0592,1 L78.0592,2.4076 L79.444,2.4076 L79.444,3.3508 L79.4452,3.3508 Z"></path>
                                <path d="M85.9128,8.2524 L84.654,8.2524 L84.654,5.0364 C84.654,4.0224 84.2748,3.5148 83.5152,3.5148 C82.932,3.5148 82.5336,3.8088 82.3152,4.3968 C82.278,4.5204 82.2564,4.6716 82.2564,4.8492 L82.2564,8.2512 L81,8.2512 L81,0 L82.2564,0 L82.2564,3.4092 L82.2804,3.4092 C82.6764,2.7888 83.244,2.4792 83.9796,2.4792 C84.5004,2.4792 84.9312,2.6496 85.2732,2.9916 C85.6992,3.4176 85.9128,4.0512 85.9128,4.8888 L85.9128,8.2524 L85.9128,8.2524 Z"></path>
                                <path d="M93.0292,4.6868 C93.0292,4.9124 93.0124,5.102 92.9824,5.2568 L89.2108,5.2568 C89.2276,5.816 89.4076,6.242 89.7568,6.5372 C90.076,6.8012 90.4876,6.9332 90.9916,6.9332 C91.5496,6.9332 92.0584,6.8444 92.5168,6.6656 L92.7136,7.5392 C92.1772,7.772 91.546,7.8884 90.8152,7.8884 C89.9392,7.8884 89.2492,7.6304 88.75,7.1144 C88.2484,6.5984 88,5.906 88,5.0372 C88,4.184 88.2316,3.4736 88.6984,2.9072 C89.1856,2.3024 89.8444,2 90.676,2 C91.4896,2 92.1076,2.3024 92.5252,2.9072 C92.8624,3.3872 93.0292,3.9812 93.0292,4.6868 L93.0292,4.6868 Z M91.8292,4.3616 C91.8388,3.9884 91.756,3.6668 91.5856,3.3956 C91.3672,3.0464 91.0348,2.8712 90.5848,2.8712 C90.1744,2.8712 89.8396,3.0416 89.584,3.3836 C89.3752,3.656 89.2516,3.9812 89.2108,4.3616 L91.8292,4.3616 L91.8292,4.3616 Z"></path>
                            </g>
                        </g>
                    </g>
                </g>
            </g>
        </g>
    </g>
</svg>