<?xml version="1.0" encoding="UTF-8"?>
<svg width="30px" height="34px" viewBox="0 0 30 34" version="1.1" xmlns="http://www.w3.org/2000/svg" xmlns:xlink="http://www.w3.org/1999/xlink">
    <!-- Generator: Sketch 50.2 (55047) - http://www.bohemiancoding.com/sketch -->
    <title>icon/calendar/gray</title>
    <desc>Created with Sketch.</desc>
    <defs></defs>
    <g id="Page-1" stroke="none" stroke-width="1" fill="none" fill-rule="evenodd">
        <g id="LandingPage/Desktop/Seminars2018-LandingPage-v4" transform="translate(-657.000000, -3285.000000)" fill="#BBC4CD" fill-rule="nonzero">
            <g id="schedule" transform="translate(0.000000, 3207.000000)">
                <g id="Group-5" transform="translate(194.000000, 75.000000)">
                    <g id="icon/calendar/gray" transform="translate(458.000000, 0.000000)">
                        <path d="M15,18.3333333 L11.6666667,18.3333333 L11.6666667,21.6666667 L15,21.6666667 L15,18.3333333 Z M21.6666667,18.3333333 L18.3333333,18.3333333 L18.3333333,21.6666667 L21.6666667,21.6666667 L21.6666667,18.3333333 Z M28.3333333,18.3333333 L25,18.3333333 L25,21.6666667 L28.3333333,21.6666667 L28.3333333,18.3333333 Z M15,25 L11.6666667,25 L11.6666667,28.3333333 L15,28.3333333 L15,25 Z M21.6666667,25 L18.3333333,25 L18.3333333,28.3333333 L21.6666667,28.3333333 L21.6666667,25 Z M28.3333333,25 L25,25 L25,28.3333333 L28.3333333,28.3333333 L28.3333333,25 Z M31.6666667,6.66666667 L30,6.66666667 L30,3.33333333 L26.6666667,3.33333333 L26.6666667,6.66666667 L13.3333333,6.66666667 L13.3333333,3.33333333 L10,3.33333333 L10,6.66666667 L8.33333333,6.66666667 C6.48333333,6.66666667 5.01666667,8.16666667 5.01666667,10 L5,33.3333333 C5,35.1666667 6.48333333,36.6666667 8.33333333,36.6666667 L31.6666667,36.6666667 C33.5,36.6666667 35,35.1666667 35,33.3333333 L35,10 C35,8.16666667 33.5,6.66666667 31.6666667,6.66666667 Z M31.6666667,33.3333333 L8.33333333,33.3333333 L8.33333333,15 L31.6666667,15 L31.6666667,33.3333333 Z" id="Shape"></path>
                    </g>
                </g>
            </g>
        </g>
    </g>
</svg>