<?xml version="1.0" encoding="utf-8"?>
<!-- Generator: Adobe Illustrator 16.0.0, SVG Export Plug-In . SVG Version: 6.00 Build 0)  -->
<!DOCTYPE svg PUBLIC "-//W3C//DTD SVG 1.1//EN" "http://www.w3.org/Graphics/SVG/1.1/DTD/svg11.dtd">
<svg version="1.1" id="Layer_1" xmlns="http://www.w3.org/2000/svg" xmlns:xlink="http://www.w3.org/1999/xlink" x="0px" y="0px"
	 width="24px" height="24px" viewBox="0 0 24 24" enable-background="new 0 0 24 24" xml:space="preserve">
<path fill="#9099A3" d="M24,3.6C24,1.611,22.389,0,20.4,0H3.6C1.611,0,0,1.611,0,3.6v16.8C0,22.389,1.611,24,3.6,24h16.8
	c1.988,0,3.6-1.611,3.6-3.602V3.6z"/>
<path fill="#202F3D" d="M14.859,5.893c-1.881-2.454-5.354-3.484-8.444-2.475c-2.264,0.74-3.931,2.159-4.609,4.499
	c-0.733,2.529,0.247,4.985,2.572,6.628c0.362,0.256,0.417,0.475,0.298,0.868c-0.16,0.534-0.251,1.091-0.392,1.726
	c0.765-0.479,1.411-0.906,2.084-1.287c0.203-0.113,0.487-0.144,0.727-0.123c0.693,0.06,1.384,0.162,2.141,0.256
	c-0.173-2.035,0.458-3.678,1.84-5.02c1.367-1.326,3.052-1.913,4.988-2.015C15.954,7.773,15.538,6.778,14.859,5.893z"/>
<path fill="#202F3D" d="M20.416,21.025c-0.041-0.162-0.049-0.325-0.12-0.455c-0.383-0.698-0.168-1.135,0.429-1.664
	c2.064-1.83,2.264-4.723,0.572-6.902c-1.938-2.497-5.966-3.098-8.713-1.298c-3.092,2.024-3.474,5.813-0.802,8.286
	c1.405,1.299,3.108,1.828,5.011,1.634c0.624-0.063,1.251-0.407,1.848-0.347C19.24,20.344,19.803,20.753,20.416,21.025L20.416,21.025
	z"/>
<path fill="#9099A3" d="M6.236,8.997c-0.491-0.013-0.863-0.403-0.849-0.89c0.014-0.48,0.415-0.854,0.902-0.839
	c0.477,0.014,0.877,0.431,0.859,0.894C7.131,8.636,6.723,9.009,6.236,8.997z"/>
<path fill="#9099A3" d="M12.686,8.122c0.004,0.492-0.369,0.873-0.861,0.879c-0.491,0.006-0.888-0.371-0.896-0.853
	c-0.008-0.464,0.396-0.871,0.874-0.88C12.287,7.26,12.682,7.64,12.686,8.122z"/>
<path fill="#9099A3" d="M12.709,13.57c-0.014-0.402,0.325-0.75,0.73-0.747c0.408,0.001,0.736,0.344,0.722,0.752
	c-0.015,0.386-0.337,0.69-0.728,0.69C13.047,14.266,12.723,13.955,12.709,13.57z"/>
<path fill="#9099A3" d="M17.936,12.824c0.402,0.003,0.722,0.342,0.707,0.752c-0.016,0.39-0.324,0.688-0.717,0.686
	c-0.404-0.002-0.724-0.338-0.707-0.746C17.234,13.132,17.557,12.82,17.936,12.824L17.936,12.824z"/>
</svg>
