<?xml version="1.0" encoding="UTF-8"?>
<svg width="20px" height="20px" viewBox="0 0 20 20" version="1.1" xmlns="http://www.w3.org/2000/svg" xmlns:xlink="http://www.w3.org/1999/xlink">
    <!-- Generator: Sketch 50.2 (55047) - http://www.bohemiancoding.com/sketch -->
    <title>icon/calendar/gray</title>
    <desc>Created with Sketch.</desc>
    <defs></defs>
    <g id="Page-1" stroke="none" stroke-width="1" fill="none" fill-rule="evenodd">
        <g id="LandingPage/Desktop/Seminars2018-LandingPage-v4" transform="translate(-542.000000, -3586.000000)" fill="#BBC4CD" fill-rule="nonzero">
            <g id="schedule" transform="translate(0.000000, 3207.000000)">
                <g id="Group-5" transform="translate(194.000000, 75.000000)">
                    <g id="timetable" transform="translate(103.000000, 253.000000)">
                        <g transform="translate(167.000000, 12.000000)" id="reg-icon">
                            <g>
                                <g id="reg" transform="translate(76.000000, 0.000000)">
                                    <g id="icon/time" transform="translate(0.000000, 37.000000)">
                                        <path d="M11.99,2 C6.47,2 2,6.48 2,12 C2,17.52 6.47,22 11.99,22 C17.52,22 22,17.52 22,12 C22,6.48 17.52,2 11.99,2 Z M12,20 C7.58,20 4,16.42 4,12 C4,7.58 7.58,4 12,4 C16.42,4 20,7.58 20,12 C20,16.42 16.42,20 12,20 Z" id="Shape"></path>
                                        <polygon id="Shape" points="12.5 7 11 7 11 13 16.25 16.15 17 14.92 12.5 12.25"></polygon>
                                    </g>
                                </g>
                            </g>
                        </g>
                    </g>
                </g>
            </g>
        </g>
    </g>
</svg>