<?xml version="1.0" encoding="UTF-8"?>
<svg width="30px" height="30px" viewBox="0 0 30 30" version="1.1" xmlns="http://www.w3.org/2000/svg" xmlns:xlink="http://www.w3.org/1999/xlink">
    <!-- Generator: Sketch 50.2 (55047) - http://www.bohemiancoding.com/sketch -->
    <title>icon/coffee</title>
    <desc>Created with Sketch.</desc>
    <defs></defs>
    <g id="Page-1" stroke="none" stroke-width="1" fill="none" fill-rule="evenodd">
        <g id="LandingPage/Desktop/Seminars2018-LandingPage-v4" transform="translate(-487.000000, -3887.000000)" fill="#FFFFFF" fill-rule="nonzero">
            <g id="schedule" transform="translate(0.000000, 3207.000000)">
                <g id="Group-5" transform="translate(202.000000, 75.000000)">
                    <g id="timetable" transform="translate(103.000000, 253.000000)">
                        <g transform="translate(167.000000, 12.000000)" id="coffee">
                            <g transform="translate(2.000000, 329.000000)">
                                <g id="icon/coffee" transform="translate(13.000000, 11.000000)">
                                    <path d="M15.067,11.9802198 C14.8933333,11.9802198 14.723,11.9132967 14.5953333,11.787033 L12.393,9.6089011 C11.889,9.11076923 11.6113333,8.4478022 11.6113333,7.74230769 C11.6113333,7.03714286 11.889,6.37450549 12.393,5.87571429 L14.2716667,4.07934066 C14.3516667,4.00021978 14.4,3.88450549 14.4,3.76120879 L14.4,0.989010989 C14.4,0.722307692 14.5623333,0.481978022 14.8116667,0.37978022 C15.0606667,0.277582418 15.3473333,0.333956044 15.538,0.522857143 L17.7396667,2.70098901 C18.244,3.19945055 18.522,3.86208791 18.522,4.56758242 C18.522,5.27274725 18.244,5.93571429 17.7396667,6.43417582 L15.8606667,8.23054945 C15.781,8.30967033 15.7323333,8.42538462 15.7323333,8.54868132 L15.7323333,11.3208791 C15.7323333,11.5875824 15.57,11.8279121 15.3206667,11.9301099 C15.2393333,11.9637363 15.1526667,11.9802198 15.067,11.9802198 Z M15.7333333,2.58098901 L15.7333333,3.76153846 C15.7333333,4.23692308 15.546,4.68362637 15.2063333,5.01989011 L13.3276667,6.81626374 C13.0836667,7.05791209 12.9446667,7.38956044 12.9446667,7.74263736 C12.9446667,8.09571429 13.0836667,8.42736264 13.3356667,8.67659341 L14.4,9.72923077 L14.4,8.54868132 C14.4,8.07296703 14.5873333,7.62593407 14.9273333,7.29032967 L16.806,5.49428571 C17.0493333,5.25296703 17.1886667,4.92098901 17.1886667,4.56791209 C17.1886667,4.21483516 17.0493333,3.88285714 16.7973333,3.63362637 L15.7333333,2.58098901 Z" id="Shape"></path>
                                    <path d="M27.3333333,15.4945055 L24.0846667,15.4945055 C24.116,14.8134066 24.1333333,14.097033 24.1333333,13.3351648 C24.1333333,12.9712088 23.8346667,12.6758242 23.4666667,12.6758242 L6.66666667,12.6758242 C6.29866667,12.6758242 6,12.9712088 6,13.3351648 C6,24.3840659 9.40766667,26.7032967 12.2663333,26.7032967 L17.8666667,26.7032967 C19.7213333,26.7032967 21.8063333,25.7231868 23.0426667,22.0196703 C23.1316667,22.0621978 23.2293333,22.0879121 23.3333333,22.0879121 C25.9066667,22.0879121 28,20.0175824 28,17.4725275 L28,16.1538462 C28,15.7898901 27.7013333,15.4945055 27.3333333,15.4945055 Z M26.6666667,17.4725275 C26.6666667,19.2669231 25.2086667,20.7283516 23.403,20.7656044 C23.6736667,19.6546154 23.8786667,18.3441758 24.002,16.8131868 L26.6666667,16.8131868 L26.6666667,17.4725275 Z" id="Shape"></path>
                                    <path d="M20.7333333,29.9742857 L9.26666667,29.9742857 C9.22966667,29.9742857 9.19266667,29.970989 9.156,29.9653846 L0.556,28.5332967 C0.214333333,28.4762637 -0.0266666667,28.1696703 0.00233333333,27.8278022 C0.0313333333,27.4862637 0.32,27.2235165 0.666666667,27.2235165 L29.3333333,27.2235165 C29.68,27.2235165 29.9686667,27.4862637 29.9976667,27.8278022 C30.0266667,28.1696703 29.7856667,28.4762637 29.444,28.5332967 L20.844,29.9653846 C20.8076667,29.970989 20.7706667,29.9742857 20.7333333,29.9742857 Z" id="Shape"></path>
                                </g>
                            </g>
                        </g>
                    </g>
                </g>
            </g>
        </g>
    </g>
</svg>