<?xml version="1.0" encoding="utf-8"?>
<!-- Generator: Adobe Illustrator 16.0.0, SVG Export Plug-In . SVG Version: 6.00 Build 0)  -->
<!DOCTYPE svg PUBLIC "-//W3C//DTD SVG 1.1//EN" "http://www.w3.org/Graphics/SVG/1.1/DTD/svg11.dtd">
<svg version="1.1" id="Shape_1_" xmlns="http://www.w3.org/2000/svg" xmlns:xlink="http://www.w3.org/1999/xlink" x="0px" y="0px"
	 width="20px" height="20px" viewBox="0 0 20 20" enable-background="new 0 0 20 20" xml:space="preserve">
<g id="Shape">
	<g>
		<path fill-rule="evenodd" clip-rule="evenodd" fill="#fff" d="M9.99,0C4.47,0,0,4.48,0,10c0,5.52,4.47,10,9.99,10
			C15.52,20,20,15.52,20,10C20,4.48,15.52,0,9.99,0z M16.92,6h-2.95c-0.32-1.25-0.78-2.45-1.38-3.56C14.43,3.07,15.96,4.35,16.92,6z
			 M10,2.04c0.83,1.2,1.479,2.53,1.91,3.96H8.09C8.52,4.57,9.17,3.24,10,2.04z M2.26,12C2.1,11.36,2,10.689,2,10
			c0-0.69,0.1-1.36,0.26-2h3.38C5.56,8.66,5.5,9.32,5.5,10s0.06,1.34,0.14,2H2.26z M3.08,14h2.95c0.32,1.25,0.78,2.45,1.38,3.56
			C5.57,16.93,4.04,15.66,3.08,14z M6.03,6H3.08c0.96-1.66,2.49-2.93,4.33-3.56C6.81,3.55,6.35,4.75,6.03,6z M10,17.96
			c-0.83-1.2-1.48-2.53-1.91-3.96h3.82C11.479,15.43,10.83,16.76,10,17.96z M12.34,12H7.66c-0.09-0.66-0.16-1.32-0.16-2
			s0.07-1.351,0.16-2h4.68c0.09,0.649,0.16,1.32,0.16,2S12.43,11.34,12.34,12z M12.59,17.56c0.6-1.109,1.06-2.31,1.38-3.56h2.95
			C15.96,15.649,14.43,16.93,12.59,17.56z M14.36,12c0.079-0.66,0.14-1.32,0.14-2s-0.061-1.34-0.14-2h3.38
			C17.899,8.64,18,9.31,18,10c0,0.689-0.101,1.36-0.26,2H14.36z"/>
	</g>
</g>
</svg>
