<?xml version="1.0" encoding="UTF-8"?>
<svg width="23px" height="23px" viewBox="0 0 23 23" version="1.1" xmlns="http://www.w3.org/2000/svg" xmlns:xlink="http://www.w3.org/1999/xlink">
    <!-- Generator: Sketch 50.2 (55047) - http://www.bohemiancoding.com/sketch -->
    <title>noun_1527238_cc</title>
    <desc>Created with Sketch.</desc>
    <defs></defs>
    <g id="Page-1" stroke="none" stroke-width="1" fill="none" fill-rule="evenodd">
        <g id="LandingPage/Desktop/Seminars2018-LandingPage-v4" transform="translate(-483.000000, -3602.000000)" fill="#F5F7F9" fill-rule="nonzero">
            <g id="schedule" transform="translate(0.000000, 3207.000000)">
                <g id="Group-5" transform="translate(194.000000, 75.000000)">
                    <g id="timetable" transform="translate(103.000000, 253.000000)">
                        <g transform="translate(167.000000, 12.000000)" id="reg-icon">
                            <g>
                                <g id="noun_1527238_cc" transform="translate(19.000000, 55.000000)">
                                    <g id="Group">
                                        <path d="M16.9234568,20.054878 C16.9234568,20.7280488 16.3555556,21.2609756 15.6740741,21.2609756 L2.72592593,21.2609756 C2.04444444,21.2609756 1.47654321,20.7280488 1.47654321,20.054878 L1.47654321,7.23658537 C1.47654321,6.56341463 2.04444444,6.00243902 2.72592593,6.00243902 L14.4246914,6.00243902 L15.9012346,4.57195122 L2.07283951,4.57195122 C0.937037037,4.57195122 0,5.4695122 0,6.59146341 L0,20.7 C0,21.8219512 0.937037037,22.747561 2.07283951,22.747561 L16.3555556,22.747561 C17.491358,22.747561 18.4,21.8219512 18.4,20.7 L18.4,7.0402439 L16.9518519,8.49878049 L16.9518519,20.054878 L16.9234568,20.054878 Z" id="Shape"></path>
                                        <path d="M22.3753086,0.617073171 C21.8925926,0.140243902 21.0975309,0.168292683 20.5864198,0.673170732 L7.2691358,13.8560976 L4.51481481,18.2878049 L9.00123457,15.5670732 L22.3185185,2.41219512 C22.8296296,1.87926829 22.8580247,1.09390244 22.3753086,0.617073171 Z M5.3382716,17.6987805 L5.11111111,17.4743902 L7.2691358,13.9963415 L8.85925926,15.5670732 L5.3382716,17.6987805 Z M21.182716,3.39390244 L19.5641975,1.79512195 L19.6777778,1.68292683 L21.2962963,3.28170732 L21.182716,3.39390244 Z M21.4382716,3.14146341 L19.8197531,1.54268293 L19.9333333,1.4304878 L21.5518519,3.02926829 L21.4382716,3.14146341 Z" id="Shape"></path>
                                    </g>
                                </g>
                            </g>
                        </g>
                    </g>
                </g>
            </g>
        </g>
    </g>
</svg>