<?xml version="1.0" encoding="utf-8"?>
<!-- Generator: Adobe Illustrator 16.0.0, SVG Export Plug-In . SVG Version: 6.00 Build 0)  -->
<!DOCTYPE svg PUBLIC "-//W3C//DTD SVG 1.1//EN" "http://www.w3.org/Graphics/SVG/1.1/DTD/svg11.dtd">
<svg version="1.1" id="Layer_1" xmlns="http://www.w3.org/2000/svg" xmlns:xlink="http://www.w3.org/1999/xlink" x="0px" y="0px"
	 width="24px" height="24px" viewBox="0 0 24 24" enable-background="new 0 0 24 24" xml:space="preserve">
<path fill="#9099A3" d="M24,1v22c0,0.552-0.447,1-1,1h-6.26v-9h3.44l1-4h-4.44V8.771c0-1.049,0.291-1.764,1.795-1.764l1.918-0.001
	V3.768c-0.332-0.044-1.47-0.143-2.795-0.143C14.893,3.625,13,5.313,13,8.412V11h-3v4h3v9H1c-0.552,0-1-0.448-1-1V1
	c0-0.553,0.448-1,1-1h22C23.553,0,24,0.447,24,1z"/>
</svg>
