<?xml version="1.0" encoding="UTF-8"?>
<svg width="206px" height="34px" viewBox="0 0 206 34" version="1.1" xmlns="http://www.w3.org/2000/svg" xmlns:xlink="http://www.w3.org/1999/xlink">
    <!-- Generator: Sketch 50.2 (55047) - http://www.bohemiancoding.com/sketch -->
    <title>logo/forex4you/color</title>
    <desc>Created with Sketch.</desc>
    <defs></defs>
    <g id="Page-1" stroke="none" stroke-width="1" fill="none" fill-rule="evenodd">
        <g id="LandingPage/Desktop/Seminars2018-LandingPage-v4" transform="translate(-437.000000, -6298.000000)" fill="#FFFFFF">
            <g id="sponsored-by" transform="translate(0.000000, 6087.000000)">
                <g id="Group-7" transform="translate(294.000000, 75.000000)">
                    <g id="Group-13" transform="translate(143.000000, 134.000000)">
                        <g id="logo/forex4you/white">
                            <path d="M163.008323,19.3727741 C163.008323,23.0103118 165.368677,25.265499 169.190185,25.265499 C172.936761,25.265499 175.334625,22.9738934 175.334625,19.4091925 C175.334625,15.7353226 172.974272,13.4437169 169.190185,13.4437169 C165.406188,13.4437169 163.008323,15.7353226 163.008323,19.3727741 M181.758402,19.335753 C181.758402,25.3988611 176.754633,29.4283919 169.229647,29.4283919 C161.510722,29.4283919 156.584546,25.4364848 156.584546,19.1851719 C156.584546,13.272645 161.704573,9.2431142 169.190806,9.2431142 C176.754633,9.2431142 181.758402,13.272645 181.758402,19.335753" id="Fill-1"></path>
                            <path d="M142.384415,28.5643798 L132.728044,9.96687658 L139.632458,9.96084989 L145.42041,22.3870229 L151.401416,9.95465101 L157.669208,9.94518049 L144.981807,35.9697177 L138.770681,35.9715257 C138.770681,35.9715257 141.910429,29.5894336 142.384415,28.5643798" id="Fill-3"></path>
                            <path d="M199.660751,19.8196962 C199.660751,22.3712244 197.470039,24.1800922 194.960794,24.1800922 C192.451638,24.1800922 190.260837,22.0890892 190.260837,19.8196962 L190.260837,9.96872763 L183.964669,9.96872763 L183.964669,19.184397 C183.964669,24.713196 189.347982,29.2111727 194.960794,29.2111727 C200.573607,29.2111727 205.95692,24.713196 205.95692,19.184397 L205.95692,9.96872763 L199.660751,9.96872763 L199.660751,19.8196962 Z" id="Fill-5"></path>
                            <polygon id="Fill-8" points="119.131334 17.7751245 131.370022 6.13741467 127.487237 2.39036345 111.005818 17.8981551 111.005818 23.0265236 124.670721 23.0265236 124.670721 35.9461964 130.854889 35.9461964 130.854889 17.7751245"></polygon>
                            <path d="M0.00727163151,3.58429371 L0.00727163151,28.7394379 L6.55386827,28.7394379 L6.55386827,18.6554947 L20.9401705,18.6554947 L20.9401705,13.4892442 L6.55386827,13.4892442 L6.55386827,8.74270955 L22.3042221,8.74270955 L22.3042221,3.58429371 L0.00727163151,3.58429371 Z M63.7560689,19.3435705 C63.7560689,13.210639 68.1738511,9.32979522 75.4744804,9.32979522 C82.9966285,9.32979522 87.1967938,13.1769756 87.1967938,20.0757272 L87.1967938,20.8687535 L70.5535368,20.8687535 C70.5535368,23.6054732 72.5956238,25.3832606 75.4744804,25.3832606 C77.7780801,25.3832606 79.5050926,24.3699157 80.2232105,22.6375008 L86.8778175,22.6375008 C85.2615644,26.9031917 81.2348541,29.3976385 75.4744804,29.3976385 C68.2512673,29.3976385 63.7560689,25.5141258 63.7560689,19.3435705 Z M75.6213319,13.210639 C72.8118218,13.210639 70.9406182,14.6684091 70.7324012,16.9892012 L80.5128343,16.9892012 C80.2952174,14.6684091 78.4213534,13.210639 75.6213319,13.210639 Z M55.6000474,12.4487793 L55.6000474,9.99187012 L49.5606913,9.99187012 L49.5606913,28.7406433 L55.6000474,28.7406433 L55.6000474,20.3569153 C55.6000474,16.5771478 57.7607861,14.322391 61.2830047,14.322391 C61.9649419,14.322391 62.8659148,14.3587233 63.1888816,14.3923867 L63.1888816,9.46840908 C62.7204821,9.39841338 61.9330176,9.32979522 61.5005329,9.32979522 C59.3090228,9.32979522 57.4018158,10.3741344 55.6000474,12.4487793 Z M22.9835876,19.3422791 C22.9835876,13.210639 27.5827172,9.32979522 35.321152,9.32979522 C43.0581679,9.32979522 47.6187223,13.210639 47.6187223,19.3422791 C47.6187223,25.5141258 42.9807516,29.3976385 35.321152,29.3976385 C27.6601334,29.3976385 22.9835876,25.5141258 22.9835876,19.3422791 Z M29.5286767,19.3824857 C29.5286767,22.6777074 31.7949427,24.9310006 35.321152,24.9310006 C38.7739354,24.9310006 41.0735446,22.6375008 41.0735446,19.3422791 C41.0735446,16.0600578 38.7739354,13.8002214 35.321152,13.8002214 C31.7949427,13.8002214 29.5286767,16.0912244 29.5286767,19.3824857 Z M102.629502,9.98799582 L110.429213,9.98799582 L102.12235,19.3422791 L111.005889,28.7394379 L102.984481,28.7394379 L98.5254636,23.5082713 L94.245133,28.7394379 L86.3293414,28.7394379 L94.928489,19.17379 L87.2688894,9.98799582 L94.8217202,9.98799582 L98.6294834,14.9793863 L102.629502,9.98799582 Z" id="Clip-12"></path>
                        </g>
                    </g>
                </g>
            </g>
        </g>
    </g>
</svg>