<?xml version="1.0" encoding="utf-8"?>
<!-- Generator: Adobe Illustrator 16.0.0, SVG Export Plug-In . SVG Version: 6.00 Build 0)  -->
<!DOCTYPE svg PUBLIC "-//W3C//DTD SVG 1.1//EN" "http://www.w3.org/Graphics/SVG/1.1/DTD/svg11.dtd">
<svg version="1.1" id="Layer_1" xmlns="http://www.w3.org/2000/svg" xmlns:xlink="http://www.w3.org/1999/xlink" x="0px" y="0px"
	 width="24px" height="24px" viewBox="0 0 24 24" enable-background="new 0 0 24 24" xml:space="preserve">
<path fill="#9099A3" d="M1,0h22c0.553,0,1,0.446,1,1v22c0,0.553-0.447,1-1,1H1c-0.553,0-1-0.447-1-1V1C0,0.446,0.447,0,1,0z"/>
<path fill="#202F3D" d="M9.409,11.714h5.106c0.047,0.275,0.086,0.55,0.086,0.911c0,3.145-2.07,5.375-5.192,5.375
	C6.419,18,4,15.54,4,12.5C4,9.459,6.419,7,9.409,7c1.46,0,2.682,0.542,3.624,1.438l-1.469,1.438
	c-0.401-0.393-1.104-0.849-2.155-0.849c-1.847,0-3.354,1.557-3.354,3.474s1.507,3.474,3.354,3.474c2.141,0,2.944-1.563,3.067-2.373
	H9.409V11.714L9.409,11.714z"/>
<polyline fill="#202F3D" points="21,11.714 19.454,11.714 19.454,10.143 17.909,10.143 17.909,11.714 16.363,11.714 16.363,13.285 
	17.909,13.285 17.909,14.855 19.454,14.855 19.454,13.285 21,13.285 "/>
</svg>
