<?xml version="1.0" encoding="utf-8"?>
<!-- Generator: Adobe Illustrator 16.0.0, SVG Export Plug-In . SVG Version: 6.00 Build 0)  -->
<!DOCTYPE svg PUBLIC "-//W3C//DTD SVG 1.1//EN" "http://www.w3.org/Graphics/SVG/1.1/DTD/svg11.dtd">
<svg version="1.1" id="Layer_1" xmlns="http://www.w3.org/2000/svg" xmlns:xlink="http://www.w3.org/1999/xlink" x="0px" y="0px"
	 width="24px" height="24px" viewBox="0 0 24 24" enable-background="new 0 0 24 24" xml:space="preserve">
<path fill="#9099A3" d="M12,0c3.259,0,3.668,0.014,4.948,0.071c1.95,0.089,3.663,0.567,5.038,1.942s1.853,3.088,1.94,5.038
	C23.986,8.332,24,8.74,24,12c0,3.259-0.014,3.668-0.072,4.947c-0.089,1.949-0.566,3.662-1.941,5.037s-3.088,1.854-5.037,1.942
	C15.668,23.984,15.259,24,12,24s-3.668-0.016-4.948-0.072c-1.95-0.089-3.663-0.566-5.038-1.941s-1.853-3.088-1.941-5.038
	C0.014,15.668,0,15.259,0,12c0-3.26,0.014-3.668,0.072-4.948c0.089-1.95,0.566-3.663,1.941-5.038S5.102,0.16,7.052,0.071
	C8.332,0.014,8.741,0,12,0L12,0z"/>
<path fill="#202F3D" d="M12,2.162c-3.204,0-3.584,0.012-4.849,0.069C5.785,2.294,4.518,2.567,3.543,3.543
	C2.568,4.518,2.294,5.784,2.231,7.15C2.174,8.416,2.162,8.796,2.162,12c0,3.203,0.012,3.584,0.069,4.85
	c0.063,1.365,0.337,2.633,1.312,3.607s2.242,1.249,3.608,1.311c1.265,0.059,1.645,0.07,4.849,0.07s3.584-0.013,4.85-0.07
	c1.365-0.062,2.633-0.336,3.607-1.311c0.975-0.977,1.249-2.242,1.311-3.607c0.06-1.266,0.07-1.646,0.07-4.85
	c0-3.204-0.012-3.584-0.07-4.85c-0.062-1.366-0.336-2.633-1.311-3.607c-0.975-0.976-2.242-1.249-3.607-1.312
	C15.584,2.174,15.204,2.162,12,2.162L12,2.162z"/>
<circle fill="#9099A3" cx="12" cy="12" r="6.162"/>
<circle fill="#202F3D" cx="12" cy="12" r="4"/>
<circle fill="#9099A3" cx="18.406" cy="5.594" r="1.44"/>
</svg>
