<?xml version="1.0" encoding="utf-8"?>
<!-- Generator: Adobe Illustrator 16.0.0, SVG Export Plug-In . SVG Version: 6.00 Build 0)  -->
<!DOCTYPE svg PUBLIC "-//W3C//DTD SVG 1.1//EN" "http://www.w3.org/Graphics/SVG/1.1/DTD/svg11.dtd">
<svg version="1.1" id="Layer_1" xmlns="http://www.w3.org/2000/svg" xmlns:xlink="http://www.w3.org/1999/xlink" x="0px" y="0px"
	 width="24px" height="24px" viewBox="0 0 24 24" enable-background="new 0 0 24 24" xml:space="preserve">
<path fill="#9099A3" d="M19.67,0.027c2.385,0.004,4.314,1.961,4.313,4.346v15.184c-0.004,2.385-1.961,4.314-4.346,4.313H4.453
	c-2.384-0.003-4.314-1.961-4.312-4.346V4.34c0.004-2.385,1.961-4.315,4.346-4.313H19.67"/>
<path fill="#202F3D" d="M20.703,10.899c0,1.555-0.604,2.955-1.86,4.333l0,0c-1.821,2.097-5.894,4.648-6.82,5.039
	c-0.926,0.392-0.789-0.248-0.751-0.467c0.021-0.131,0.123-0.744,0.123-0.744c0.029-0.221,0.06-0.564-0.027-0.783
	c-0.098-0.242-0.482-0.367-0.765-0.43c-4.172-0.551-7.26-3.467-7.26-6.949c0-3.884,3.895-7.044,8.68-7.044
	C16.811,3.855,20.703,7.016,20.703,10.899"/>
<path fill="#9099A3" d="M10.259,9.022c0.094,0,0.17,0.076,0.17,0.169v3.782c0,0.094-0.076,0.17-0.17,0.17H9.65
	c-0.094,0-0.169-0.076-0.169-0.17V9.191c0-0.093,0.075-0.169,0.169-0.169H10.259"/>
<path fill="#9099A3" d="M14.45,9.022c0.093,0,0.169,0.076,0.169,0.169v3.782c0,0.094-0.076,0.17-0.169,0.17h-0.609
	c-0.015,0-0.028-0.002-0.043-0.007c-0.001,0-0.002-0.001-0.003-0.001c-0.004-0.001-0.007-0.002-0.011-0.004
	c-0.002,0-0.005-0.001-0.005-0.002c-0.004-0.001-0.006-0.002-0.01-0.003c-0.002-0.001-0.006-0.003-0.008-0.004
	s-0.003-0.002-0.005-0.003c-0.004-0.002-0.007-0.004-0.011-0.006c0-0.002-0.001-0.002-0.002-0.002
	c-0.016-0.012-0.03-0.024-0.043-0.041l-1.734-2.344v2.247c0,0.092-0.076,0.168-0.17,0.168h-0.608c-0.094,0-0.169-0.076-0.169-0.168
	V9.191c0-0.093,0.075-0.169,0.169-0.169h0.608c0.002,0,0.004,0.001,0.006,0.001c0.003,0,0.006,0,0.009,0s0.006,0.001,0.009,0.001
	c0.003,0,0.005,0.001,0.008,0.001c0.003,0.001,0.006,0.002,0.01,0.002c0.002,0.001,0.004,0.001,0.006,0.002
	c0.003,0.001,0.007,0.002,0.01,0.003c0.002,0.001,0.004,0.002,0.006,0.002c0.003,0.002,0.006,0.003,0.009,0.005
	c0.002,0,0.004,0.001,0.006,0.002c0.003,0.002,0.006,0.004,0.009,0.005c0.002,0.001,0.004,0.002,0.005,0.004
	c0.004,0.001,0.006,0.004,0.009,0.006c0.002,0.001,0.004,0.002,0.005,0.003c0.003,0.003,0.006,0.005,0.009,0.008
	c0.001,0.001,0.002,0.002,0.003,0.003c0.004,0.003,0.007,0.007,0.011,0.011l0.001,0.001c0.005,0.005,0.009,0.011,0.013,0.017
	l1.733,2.341V9.191c0-0.093,0.076-0.169,0.169-0.169H14.45"/>
<path fill="#9099A3" d="M8.792,12.195c0.093,0,0.168,0.076,0.168,0.169v0.608c0,0.094-0.075,0.17-0.168,0.17H6.359l0,0
	c-0.046,0-0.086-0.019-0.117-0.049c-0.001,0-0.001-0.001-0.002-0.002S6.238,13.09,6.237,13.09c-0.028-0.029-0.047-0.072-0.047-0.117
	l0,0V9.191c0-0.093,0.076-0.169,0.169-0.169h0.609c0.093,0,0.169,0.076,0.169,0.169v3.004H8.792"/>
<path fill="#9099A3" d="M16.158,9.97v0.639h1.654c0.092,0,0.168,0.076,0.168,0.17v0.608c0,0.094-0.076,0.169-0.168,0.169h-1.654
	v0.64h1.654c0.092,0,0.168,0.076,0.168,0.169v0.609c0,0.092-0.076,0.168-0.168,0.168H15.38l0,0c-0.046,0-0.087-0.019-0.116-0.047
	c-0.002,0-0.003-0.002-0.003-0.003c-0.001-0.001-0.002-0.002-0.003-0.002c-0.027-0.03-0.047-0.071-0.047-0.116l0,0V9.191l0,0
	c0-0.045,0.018-0.086,0.047-0.116c0.001-0.001,0.002-0.002,0.003-0.003c0-0.001,0.001-0.001,0.003-0.002
	c0.029-0.029,0.07-0.048,0.116-0.048l0,0h2.433c0.094,0,0.168,0.076,0.168,0.169V9.8c0,0.094-0.074,0.169-0.168,0.169h-1.654V9.97z"
	/>
</svg>
