<?xml version="1.0" encoding="UTF-8"?>
<svg width="30px" height="28px" viewBox="0 0 30 28" version="1.1" xmlns="http://www.w3.org/2000/svg" xmlns:xlink="http://www.w3.org/1999/xlink">
    <!-- Generator: Sketch 50.2 (55047) - http://www.bohemiancoding.com/sketch -->
    <title>icon/lunch</title>
    <desc>Created with Sketch.</desc>
    <defs></defs>
    <g id="Page-1" stroke="none" stroke-width="1" fill="none" fill-rule="evenodd">
        <g id="LandingPage/Desktop/Seminars2018-LandingPage-v4" transform="translate(-485.000000, -3742.000000)" fill="#FFFFFF" fill-rule="nonzero">
            <g id="schedule" transform="translate(0.000000, 3207.000000)">
                <g id="Group-5" transform="translate(202.000000, 75.000000)">
                    <g id="timetable" transform="translate(103.000000, 253.000000)">
                        <g transform="translate(167.000000, 12.000000)" id="lunch">
                            <g transform="translate(0.000000, 185.000000)">
                                <g id="icon/lunch" transform="translate(13.000000, 10.000000)">
                                    <path d="M1.21988372,27.7165 C0.703953488,27.7165 0.285697674,27.2972 0.285697674,26.77815 C0.285697674,26.26155 0.703953488,25.8426 1.21988372,25.8426 L28.7811628,25.8426 C29.2967442,25.8426 29.7146512,26.26155 29.7146512,26.77815 C29.7146512,27.29685 29.2967442,27.7165 28.7811628,27.7165 L1.21988372,27.7165 Z" id="Shape"></path>
                                    <path d="M27.1001163,24.80555 L2.90023256,24.80555 C2.90023256,18.4331 7.81151163,13.1446 14.1467442,12.69415 C14.0204651,12.60315 13.909186,12.4908 13.8167442,12.3641 C13.3465116,11.70855 13.4940698,10.79365 14.1467442,10.32115 C14.8011628,9.8476 15.7109302,9.996 16.1822093,10.6512 C16.6538372,11.30815 16.5062791,12.2213 15.8532558,12.69415 C22.1895349,13.14425 27.1001163,18.4331 27.1001163,24.80555 Z M4.52965116,23.27885 L10.0322093,23.27885 C10.1396512,19.8037 11.665814,16.5263 14.2538372,14.217 C9.29232558,14.56875 5.24546512,18.33965 4.52965116,23.27885 Z" id="Shape"></path>
                                    <path d="M12.0505814,10.6435 C11.672093,9.38805 11.8112791,8.03285 12.4377907,6.8803 C13.2882558,5.313 13.2240698,3.40865 12.2706977,1.90295 C12.6495349,3.1598 12.5106977,4.51605 11.884186,5.6686 C11.0337209,7.2331 11.0972093,9.13955 12.0505814,10.6435 Z" id="Shape"></path>
                                    <path d="M15.4527907,9.0258 C15.0743023,7.7686 15.2127907,6.4127 15.84,5.26015 C16.6904651,3.69355 16.6273256,1.7892 15.672907,0.28315 C16.0513953,1.54 15.9125581,2.8959 15.2863953,4.04845 C14.4352326,5.6147 14.5001163,7.51975 15.4527907,9.0258 Z" id="Shape"></path>
                                    <path d="M18.162907,11.16395 C17.7844186,9.90885 17.9236047,8.55295 18.5501163,7.4004 C19.4016279,5.8331 19.3374419,3.92875 18.3830233,2.42305 C18.7618605,3.68025 18.6230233,5.03615 17.9975581,6.1887 C17.1460465,7.7532 17.2098837,9.65965 18.162907,11.16395 Z" id="Shape"></path>
                                </g>
                            </g>
                        </g>
                    </g>
                </g>
            </g>
        </g>
    </g>
</svg>