<?xml version="1.0" encoding="UTF-8"?>
<svg width="18px" height="18px" viewBox="0 0 18 18" version="1.1" xmlns="http://www.w3.org/2000/svg" xmlns:xlink="http://www.w3.org/1999/xlink">
    <!-- Generator: Sketch 50.2 (55047) - http://www.bohemiancoding.com/sketch -->
    <title>Shape</title>
    <desc>Created with Sketch.</desc>
    <defs></defs>
    <g id="Symbols" stroke="none" stroke-width="1" fill="none" fill-rule="evenodd">
        <g id="icon/phone/gray" transform="translate(-3.000000, -3.000000)" fill="#BBC4CD">
            <path d="M6.6,10.8 C8,13.6 10.4,15.9 13.2,17.4 L15.4,15.2 C15.7,14.9 16.1,14.8 16.4,15 C17.5,15.4 18.7,15.6 20,15.6 C20.6,15.6 21,16 21,16.6 L21,20 C21,20.6 20.6,21 20,21 C10.6,21 3,13.4 3,4 C3,3.4 3.4,3 4,3 L7.5,3 C8.1,3 8.5,3.4 8.5,4 C8.5,5.2 8.7,6.4 9.1,7.6 C9.2,7.9 9.1,8.3 8.9,8.6 L6.6,10.8 L6.6,10.8 Z" id="Shape"></path>
        </g>
    </g>
</svg>