<?xml version="1.0" encoding="UTF-8"?>
<svg width="202px" height="34px" viewBox="0 0 202 34" version="1.1" xmlns="http://www.w3.org/2000/svg" xmlns:xlink="http://www.w3.org/1999/xlink">
    <!-- Generator: Sketch 50.2 (55047) - http://www.bohemiancoding.com/sketch -->
    <title>logo/share4you/color</title>
    <desc>Created with Sketch.</desc>
    <defs></defs>
    <g id="Page-1" stroke="none" stroke-width="1" fill="none" fill-rule="evenodd">
        <g id="LandingPage/Desktop/Seminars2018-LandingPage-v4" transform="translate(-703.000000, -6298.000000)" fill="#FFFFFF">
            <g id="sponsored-by" transform="translate(0.000000, 6087.000000)">
                <g id="Group-7" transform="translate(294.000000, 75.000000)">
                    <g id="Group-13" transform="translate(143.000000, 134.000000)">
                        <g id="logo/share4you/white" transform="translate(266.000000, 0.000000)">
                            <path d="M79.4514933,12.6899556 C81.1278518,10.6970667 82.9027152,9.6944 84.9438081,9.6944 C85.3467021,9.6944 86.0788332,9.76017778 86.5145622,9.82684444 L86.5145622,14.5557333 C86.2154977,14.5228444 85.3759873,14.4890667 84.7405862,14.4890667 C81.4615261,14.4890667 79.4514933,16.6544 79.4514933,20.2846222 L79.4514933,28.3352889 L73.8287261,28.3352889 L73.8287261,10.3290667 L79.4514933,10.3290667 L79.4514933,12.6899556 Z M108.864086,20.0143111 L108.864086,20.7760889 L93.3713032,20.7760889 C93.3713032,23.4036444 95.2721819,25.1112 97.9522256,25.1112 C100.096261,25.1112 101.703399,24.1387556 102.372523,22.4747556 L108.566796,22.4747556 C107.061712,26.5707556 103.3132,28.9672 97.9522256,28.9672 C91.2272682,28.9672 87.0430278,25.2374222 87.0430278,19.3103111 C87.0430278,13.4214222 91.1553862,9.69431111 97.9522256,9.69431111 C104.954062,9.69431111 108.864086,13.3885333 108.864086,20.0143111 Z M93.5372529,17.0498667 L102.642302,17.0498667 C102.43908,14.8214222 100.695277,13.4214222 98.0880026,13.4214222 C95.4727414,13.4214222 93.7316004,14.8214222 93.5372529,17.0498667 Z M39.7797469,9.77555556 C42.7570802,9.77555556 47.3042802,10.9577778 47.3042802,16.2937778 L47.3042802,28.3506667 L41.5466234,28.3506667 L41.5466234,18.084 C41.5466234,15.5844444 40.2704966,14.3684444 37.6862955,14.3684444 C35.0035895,14.3684444 32.7459633,15.7533333 32.7459633,19.604 L32.7459633,28.3506667 L26.9883064,28.3506667 L26.9883064,3.83155556 L32.7459633,3.83155556 L32.7459633,12.8831111 L32.8116332,12.8831111 C33.6617928,11.3631111 36.4101687,9.77555556 39.7797469,9.77555556 Z M70.8567174,15.7198222 L70.8567174,24.7038222 C70.8567174,26.2904889 71.1176223,27.4389333 71.5107545,28.3509333 L65.7530977,28.3509333 C65.5560879,27.7091556 65.3928004,27.0673778 65.3599655,26.4256 C63.3969666,28.4513778 59.7327611,29.0264889 57.14856,29.0264889 C52.568525,29.0264889 49.3622343,27.3713778 49.3622343,23.1500444 C49.3622343,18.7589333 53.1240573,17.8131556 56.6249753,17.5776 L62.7429294,17.1376 C64.5089185,17.0033778 65.0981731,16.6993778 65.0981731,15.2469333 C65.0981731,13.7944889 63.9205513,13.0851556 60.5829207,13.0851556 C58.1300595,13.0851556 56.8539327,13.2878222 56.0357207,15.7873778 L50.4741862,15.7873778 C51.1610584,10.2149333 56.1342256,9.57315556 60.844713,9.57315556 C69.0889534,9.57315556 70.8567174,12.3420444 70.8567174,15.7198222 Z M65.2942955,21.0220444 L65.2942955,19.5358222 C64.2151786,20.0762667 63.0375567,20.2113778 61.8918824,20.3127111 L58.5551392,20.6167111 C56.5264704,20.7856 55.5130234,21.3598222 55.5130234,22.9811556 C55.5130234,24.6016 56.9852726,25.5144889 59.1435064,25.5144889 C62.0560573,25.5144889 65.2942955,24.0620444 65.2942955,21.0220444 Z M17.6684988,14.1661333 C21.9210715,14.8754667 25.1601972,16.5305778 25.1601972,20.9208 C25.1601972,25.4123556 22.2156988,29.1892444 13.0227939,29.1892444 C7.73192612,29.1892444 1.8988376,27.9074667 -0.000266229509,22.2381333 L6.51969443,20.9065778 C8.20403978,23.9883556 10.2744179,24.6354667 13.0227939,24.6354667 C16.0001272,24.6354667 18.0279086,23.7243556 18.0279086,21.6292444 C18.0279086,19.7723556 16.5884944,19.2656889 14.0690758,18.8603556 L8.27858404,17.9483556 C4.22213377,17.3065778 0.296135956,16.0568 0.296135956,11.1270222 C0.296135956,5.75635556 4.54959607,3.3528 11.878007,3.3528 C16.3204901,3.3528 21.4489578,4.3528 24.0225097,9.78124444 L17.4972245,11.1421333 C15.6265185,8.4968 13.9057884,7.74924444 11.3544223,7.74924444 C8.73738623,7.74924444 7.03617967,8.96524444 7.03617967,10.5865778 C7.03617967,11.8701333 8.08246164,12.5785778 9.71888568,12.8488 L17.6684988,14.1661333 Z" id="Share"></path>
                            <path d="M161.527969,18.9255702 C161.527969,22.5297194 163.816174,24.7642067 167.520871,24.7642067 C171.152926,24.7642067 173.477495,22.4936353 173.477495,18.9616543 C173.477495,15.3215062 171.18929,13.0509349 167.520871,13.0509349 C163.852539,13.0509349 161.527969,15.3215062 161.527969,18.9255702 M179.704918,18.8888889 C179.704918,24.8963446 174.854098,28.8888889 167.559127,28.8888889 C160.076145,28.8888889 155.300546,24.933623 155.300546,18.7396899 C155.300546,12.8814332 160.26407,8.88888889 167.521473,8.88888889 C174.854098,8.88888889 179.704918,12.8814332 179.704918,18.8888889" id="Fill-1"></path>
                            <path d="M141.024529,28.2823972 L132.005464,10.0213036 L138.454197,10.0153859 L143.860153,22.2167824 L149.44642,10.0092992 L155.300546,10 L143.450496,35.5537803 L137.649296,35.5555556 C137.649296,35.5555556 140.581826,29.2889089 141.024529,28.2823972" id="Fill-3"></path>
                            <path d="M195.856712,19.6699692 C195.856712,22.1746162 193.75722,23.9502483 191.352459,23.9502483 C188.947783,23.9502483 186.848206,21.8976649 186.848206,19.6699692 L186.848206,10 L180.814208,10 L180.814208,19.0463428 C180.814208,24.4735569 185.973362,28.8888889 191.352459,28.8888889 C196.731556,28.8888889 201.89071,24.4735569 201.89071,19.0463428 L201.89071,10 L195.856712,10 L195.856712,19.6699692 Z" id="Fill-5"></path>
                            <polygon id="Fill-8" points="120.005364 16.9955462 132.005464 5.82035425 128.198372 2.22222222 112.038251 17.1136871 112.038251 22.0382387 125.436763 22.0382387 125.436763 34.4444444 131.500374 34.4444444 131.500374 16.9955462"></polygon>
                        </g>
                    </g>
                </g>
            </g>
        </g>
    </g>
</svg>