<?xml version="1.0" encoding="utf-8"?>
<!-- Generator: Adobe Illustrator 16.0.0, SVG Export Plug-In . SVG Version: 6.00 Build 0)  -->
<!DOCTYPE svg PUBLIC "-//W3C//DTD SVG 1.1//EN" "http://www.w3.org/Graphics/SVG/1.1/DTD/svg11.dtd">
<svg version="1.1" id="Layer_1" xmlns="http://www.w3.org/2000/svg" xmlns:xlink="http://www.w3.org/1999/xlink" x="0px" y="0px"
	 width="24px" height="24px" viewBox="0 0 24 24" enable-background="new 0 0 24 24" xml:space="preserve">
<path fill="#9099A3" d="M21.5,6.8c0,0.2,0,0.4,0,0.6c0,6.5-4.9,14-14,14c-2.7,0-5.3-0.8-7.5-2.199c0.4,0.1,0.8,0.1,1.2,0.1
	c2.3,0,4.399-0.8,6.1-2.101c-2.2,0-4-1.399-4.6-3.399c0.3,0.1,0.6,0.1,0.899,0.1c0.5,0,0.9-0.1,1.301-0.199C2.7,13.3,1,11.3,1,8.899
	c0-0.1,0-0.1,0-0.1c0.6,0.399,1.4,0.6,2.2,0.6C1.899,8.5,1,7,1,5.3c0-0.9,0.2-1.7,0.7-2.5c2.399,3,6,5,10.2,5.2
	C11.8,7.699,11.8,7.3,11.8,6.899C11.8,4.2,14,2,16.7,2c1.399,0,2.7,0.6,3.6,1.6C21.4,3.399,22.4,3,23.4,2.399
	C23,3.5,22.2,4.5,21.2,5.1c1-0.1,1.899-0.4,2.8-0.8C23.3,5.199,22.5,6.1,21.5,6.8z"/>
</svg>
