<?xml version="1.0" encoding="UTF-8"?>
<svg width="60px" height="60px" viewBox="0 0 60 60" version="1.1" xmlns="http://www.w3.org/2000/svg" xmlns:xlink="http://www.w3.org/1999/xlink">
    <!-- Generator: Sketch 50.2 (55047) - http://www.bohemiancoding.com/sketch -->
    <title>icon/streamline/chat copy@3x</title>
    <desc>Created with Sketch.</desc>
    <defs></defs>
    <g id="Symbols" stroke="none" stroke-width="1" fill="none" fill-rule="evenodd">
        <g id="blocks/desktop/contacus" transform="translate(-553.000000, -225.000000)" stroke="#78BC1E" stroke-width="2">
            <g id="contactus">
                <g id="Group-8" transform="translate(167.000000, 75.000000)">
                    <g id="icon/streamline/manager" transform="translate(384.000000, 148.000000)">
                        <path d="M43.3477,16.8696 C33.2607,16.8696 33.2607,13.0866 31.9997,11.8266 C30.7397,13.0866 30.7397,16.8696 20.6527,16.8696" id="Stroke-1" stroke-linecap="round" stroke-linejoin="round"></path>
                        <path d="M47,21 L48.391,15.609 C48.391,15.609 49.652,3 32,3 C14.348,3 15.608,15.609 15.608,15.609 L16.87,23.174 C14.348,24.435 15.608,30.739 19.391,30.739 C19.391,38.304 28.217,43.348 32,43.348 C33.566,43.348 36.255,42.465 38.646,40.763" id="Stroke-3" stroke-linecap="round"></path>
                        <path d="M25.4434,40.7627 L9.5454,45.2507 C5.6084,46.7267 3.0004,50.4907 3.0004,54.6957 L3.0004,60.9997 L61.0004,60.9997 L61.0004,54.6957 C61.0004,50.4907 58.3914,46.7267 54.4544,45.2507 L38.6454,40.7627" id="Stroke-5" stroke-linecap="round"></path>
                        <path d="M51,28.4053 L51,31.0003 C51,34.0003 48.273,35.0003 45.87,35.0003 L37,35.0003" id="Stroke-7"></path>
                        <path d="M53,25 C53,27.089 51.088,29 49,29 L47,29 L47,21 L49,21 C51.088,21 53,22.911 53,25 Z" id="Stroke-9" stroke-linecap="round" stroke-linejoin="round"></path>
                        <path d="M24.4346,24.4346 C24.4346,23.0416 25.5646,23.1736 26.9556,23.1736 C28.3496,23.1736 29.4786,23.0416 29.4786,24.4346" id="Stroke-11" stroke-linecap="round"></path>
                        <path d="M34.5215,24.4346 C34.5215,23.0416 35.6505,23.1736 37.0435,23.1736 C38.4365,23.1736 39.5655,23.0416 39.5655,24.4346" id="Stroke-13" stroke-linecap="round"></path>
                        <path d="M37,35 C37,35.552 36.552,36 36,36 L31,36 C30.448,36 30,35.552 30,35 C30,34.448 30.448,34 31,34 L36,34 C36.552,34 37,34.448 37,35 Z" id="Stroke-15" stroke-linecap="round"></path>
                    </g>
                </g>
            </g>
        </g>
    </g>
</svg>