<?xml version="1.0" encoding="utf-8"?>
<!-- Generator: Adobe Illustrator 16.0.0, SVG Export Plug-In . SVG Version: 6.00 Build 0)  -->
<!DOCTYPE svg PUBLIC "-//W3C//DTD SVG 1.1//EN" "http://www.w3.org/Graphics/SVG/1.1/DTD/svg11.dtd">
<svg version="1.1" id="Layer_1" xmlns="http://www.w3.org/2000/svg" xmlns:xlink="http://www.w3.org/1999/xlink" x="0px" y="0px"
	 width="24px" height="24px" viewBox="0 0 24 24" enable-background="new 0 0 24 24" xml:space="preserve">
<path fill="#9099A3" d="M24,11.488v1.821c0,2.023-0.2,3.946-0.2,3.946s-0.3,1.72-1,2.429c-0.899,0.91-1.899,0.91-2.399,1.012
	C17,21,12,21,12,21s-6.3,0-8.2-0.203c-0.5-0.102-1.7,0-2.6-1.012c-0.8-0.708-1-2.43-1-2.43S0,15.333,0,13.41v-1.821
	c0-2.023,0.2-3.946,0.2-3.946s0.3-1.721,1-2.429c0.9-0.91,1.9-0.91,2.4-1.012C7,4,12,4,12,4l0,0c0,0,5,0,8.4,0.202
	c0.5,0,1.5,0,2.398,1.012c0.801,0.708,1,2.429,1,2.429S24,9.565,24,11.488z"/>
<polygon fill="#202F3D" points="9.5,15.637 9.5,8.856 16,12.297 "/>
</svg>
